<?xml version="1.0" standalone="no"?>
<!DOCTYPE svg PUBLIC "-//W3C//DTD SVG 20010904//EN"
 "http://www.w3.org/TR/2001/REC-SVG-20010904/DTD/svg10.dtd">
<svg version="1.0" xmlns="http://www.w3.org/2000/svg"
 width="176.000000pt" height="176.000000pt" viewBox="0 0 176.000000 176.000000"
 preserveAspectRatio="xMidYMid meet">
<metadata>
Created by potrace 1.16, written by Peter Selinger 2001-2019
</metadata>
<g transform="translate(0.000000,176.000000) scale(0.100000,-0.100000)"
fill="#000000" stroke="none">
<path d="M0 1139 l0 -621 33 5 c17 3 93 9 167 12 163 7 200 12 200 28 1 13 74
72 105 83 30 11 155 94 155 102 0 4 -13 23 -29 43 -44 53 -90 135 -111 198
-14 42 -20 99 -24 231 -3 96 -9 218 -12 271 -8 118 3 156 64 221 l45 48 -297
0 -296 0 0 -621z"/>
<path d="M890 1756 c0 -28 37 -169 51 -196 17 -30 19 -58 20 -225 0 -188 9
-318 22 -331 3 -4 13 -1 22 6 11 9 18 10 29 1 8 -7 31 -9 59 -5 35 5 53 2 72
-10 25 -16 28 -16 55 1 15 10 44 31 63 46 19 15 51 30 70 34 51 8 74 -22 82
-106 3 -36 10 -85 15 -108 6 -23 10 -60 10 -82 0 -22 5 -63 12 -91 l12 -52 35
6 c20 3 81 10 136 15 55 6 101 10 103 11 1 0 2 110 2 244 0 254 -1 262 -42
252 -7 -1 -10 -1 -5 1 11 7 9 33 -3 33 -5 0 -10 6 -10 13 0 15 -101 47 -148
47 -25 0 -32 4 -32 20 0 16 -7 20 -36 20 -38 0 -64 18 -64 44 0 9 -4 16 -10
16 -5 0 -10 18 -10 40 0 22 -4 40 -10 40 -6 0 -10 46 -10 118 0 106 2 119 20
132 12 8 20 26 20 42 l0 28 -265 0 c-146 0 -265 -2 -265 -4z"/>
<path d="M1368 728 c-18 -22 -30 -29 -35 -22 -21 29 -160 17 -171 -14 -2 -7
-12 -12 -23 -12 -10 0 -19 -4 -19 -9 0 -5 -10 -11 -21 -14 -20 -5 -20 -7 -6
-22 15 -14 25 -14 124 5 167 33 213 50 194 74 -5 6 -10 19 -12 29 -3 14 -9 11
-31 -15z"/>
<path d="M1265 536 c-77 -18 -178 -46 -225 -63 -109 -39 -137 -44 -360 -57
-170 -11 -183 -13 -160 -26 19 -11 57 -15 150 -14 136 0 186 10 350 69 52 19
149 46 215 60 136 29 182 42 190 56 9 13 -4 11 -160 -25z"/>
</g>
</svg>
